<svg xmlns="http://www.w3.org/2000/svg" width="48" height="48" viewBox="0 0 48 48">
  <defs>
    <!-- Teal gradient definition -->
    <linearGradient id="tealGradient" x1="0%" y1="0%" x2="100%" y2="100%">
      <stop offset="0%" style="stop-color:#14b8a6;stop-opacity:1" />
      <stop offset="100%" style="stop-color:#0f766e;stop-opacity:1" />
    </linearGradient>
  </defs>
  
  <!-- White circular background -->
  <circle cx="24" cy="24" r="24" fill="white"/>
  
  <!-- File document structure with new code snippet -->
  <g transform="translate(12, 12)" stroke="url(#tealGradient)" fill="none" stroke-width="2" stroke-linecap="round" stroke-linejoin="round">
    <!-- File outline -->
    <path d="M4 22h14a2 2 0 0 0 2-2V7l-5-5H6a2 2 0 0 0-2 2v4"/>
    <path d="M14 2v4a2 2 0 0 0 2 2h4"/>
    
    <!-- Original code snippet design inside the file -->
    <!-- Code brackets -->
    <path d="M7 12L5 14L7 16"/>
    <path d="M11 12L13 14L11 16"/>
    
    <!-- Code lines -->
    <line x1="6" y1="13" x2="9" y2="13"/>
    <line x1="9" y1="15" x2="12" y2="15"/>
    
    <!-- Small dots representing code elements -->
    <circle cx="13" cy="13" r="0.5" fill="url(#tealGradient)"/>
    <circle cx="5" cy="15" r="0.5" fill="url(#tealGradient)"/>
  </g>
</svg>