<svg xmlns="http://www.w3.org/2000/svg" width="48" height="48" viewBox="0 0 48 48">
  <defs>
    <!-- Teal gradient definition -->
    <linearGradient id="tealGradient" x1="0%" y1="0%" x2="100%" y2="100%">
      <stop offset="0%" style="stop-color:#14b8a6;stop-opacity:1" />
      <stop offset="100%" style="stop-color:#0f766e;stop-opacity:1" />
    </linearGradient>
  </defs>
  
  <!-- White circular background -->
  <circle cx="24" cy="24" r="24" fill="white"/>
  
  <!-- File document structure with new code snippet -->
  <g transform="translate(10, 10)" stroke="url(#tealGradient)" fill="none" stroke-width="2" stroke-linecap="round" stroke-linejoin="round">
    <!-- File outline -->
    <path d="M4 26h18a2 2 0 0 0 2-2V7l-5-5H6a2 2 0 0 0-2 2v4"/>
    <path d="M14 2v4a2 2 0 0 0 2 2h4"/>
    
    <!-- Original code snippet design inside the file -->
    <!-- Code brackets -->
    <path d="M7 16L5 18L7 20"/>
    <path d="M15 16L17 18L15 20"/>
    
    <!-- Code lines -->
    <line x1="6" y1="17" x2="13" y2="17"/>
    <line x1="13" y1="19" x2="16" y2="19"/>
    
    <!-- Small dots representing code elements -->
    <circle cx="17" cy="17" r="0.5" fill="url(#tealGradient)"/>
    <circle cx="5" cy="19" r="0.5" fill="url(#tealGradient)"/>
  </g>
</svg>